<svg xmlns="http://www.w3.org/2000/svg" width="25" height="19" viewBox="0 0 25 19">
    <path fill="#ffffff" fill-rule="evenodd" stroke="#ffffff" d="M.688 9.006a.188.188 0 0 0-.188.187v.602c0 .103.084.187.188.187h23.625a.188.188 0 0 0 .187-.187v-.602a.188.188 0 0 0-.188-.187H.688zm0 8.506a.188.188 0 0 0-.188.187v.602c0 .103.084.187.188.187h4.875a.188.188 0 0 0 .187-.187v-.602a.188.188 0 0 0-.188-.187H.688zM.688.5A.188.188 0 0 0 .5.688v.6c0 .104.084.188.188.188h17.375a.188.188 0 0 0 .187-.187V.688A.188.188 0 0 0 18.062.5H.688z"/>
</svg>
