<svg xmlns="http://www.w3.org/2000/svg" width="16" height="16" viewBox="0 0 16 16">
    <path fill="#ffffff" fill-rule="evenodd" d="M10.666 8A2.672 2.672 0 0 0 8 5.334 2.672 2.672 0 0 0 5.334 8 2.672 2.672 0 0 0 8 10.666 2.672 2.672 0 0 0 10.666 8zm1.438 0A4.099 4.099 0 0 1 8 12.104 4.099 4.099 0 0 1 3.896 8 4.099 4.099 0 0 1 8 3.896 4.099 4.099 0 0 1 12.104 8zm1.125-4.27a.956.956 0 0 1-.959.958.956.956 0 0 1-.958-.958c0-.532.427-.959.958-.959.532 0 .959.427.959.959zM8 1.438c-1.167 0-3.666-.094-4.718.323a2.558 2.558 0 0 0-.917.604 2.558 2.558 0 0 0-.604.917C1.344 4.334 1.438 6.833 1.438 8c0 1.167-.094 3.666.323 4.718.146.365.323.636.604.917.281.281.552.458.917.604 1.052.417 3.551.323 4.718.323 1.167 0 3.666.094 4.718-.323.365-.146.636-.323.917-.604.281-.281.458-.552.604-.917.417-1.052.323-3.551.323-4.718 0-1.167.094-3.666-.323-4.718a2.558 2.558 0 0 0-.604-.917 2.558 2.558 0 0 0-.917-.604C11.666 1.344 9.167 1.438 8 1.438zM16 8c0 1.104.01 2.198-.053 3.302-.062 1.281-.354 2.416-1.291 3.354-.938.937-2.073 1.229-3.354 1.291C10.198 16.01 9.104 16 8 16s-2.198.01-3.302-.052c-1.281-.062-2.416-.354-3.354-1.291-.937-.938-1.229-2.073-1.291-3.354C-.01 10.198 0 9.104 0 8s-.01-2.198.052-3.302c.062-1.281.354-2.416 1.291-3.354C2.282.407 3.417.115 4.698.053 5.802-.01 6.896 0 8 0s2.198-.01 3.302.052c1.281.062 2.416.354 3.354 1.291.937.938 1.229 2.073 1.291 3.354C16.01 5.802 16 6.896 16 8z"/>
</svg>
